<svg width="35" height="22" viewBox="0 0 35 22" xmlns="http://www.w3.org/2000/svg">
    <g fill="#434343" fill-rule="nonzero">
        <path d="M13.754 5.841c-.184-1.791-.835-3.258-1.885-4.243A4.8 4.8 0 0 0 8.06.328C5.53.575 3.168 2.682 3.595 6.833c.38 3.708 2.609 5.386 4.883 5.528.27.016.543.011.813-.015 2.528-.249 4.888-2.356 4.462-6.505zM9.1 10.47c-1.92.19-3.324-1.314-3.582-3.826a6.707 6.707 0 0 1-.009-1.209 4.502 4.502 0 0 0 2.044.324c1.04-.101 2.847-.924 3.875-1.429.214.546.35 1.117.406 1.698.256 2.512-.817 4.255-2.734 4.442zM3.808 13.813c-.787.004-1.458.557-1.594 1.313C1.908 16.83.46 20.044.445 20.076l-.389.862 1.768.759.388-.862c.061-.135 1.443-3.2 1.859-5.152l1.122-.064-.109-1.88-1.276.074zM10.925 12.85 9.35 13.89a.397.397 0 0 1-.39.031l-1.696-.778c-.305-.14-.632.129-.607.498l.138 2.055a.43.43 0 0 0 .212.393c.14.082.314.084.455.003l1.575-1.04a.397.397 0 0 1 .389-.03l1.696.778c.305.14.632-.129.607-.498l-.138-2.055a.43.43 0 0 0-.212-.392.453.453 0 0 0-.454-.004zM33.376 11.645c.19-3.396-2.176-6.423-5.584-7.143l.06-.713a.915.915 0 0 0-.4-.846.967.967 0 0 0-.951-.076.924.924 0 0 0-.536.77l-.06.715c-3.476.179-6.312 2.779-6.71 6.151l-1.568-.126-.138 1.63 17.317 1.398.138-1.631-1.568-.13zm-12.65-1.019c.357-2.907 3.01-5.018 6.002-4.777 2.992.24 5.253 2.748 5.117 5.673l-11.12-.896zM23.747 14.597a26.862 26.862 0 0 1-3.306 3.363l-6.54-3.888-.933 1.493 6.687 3.973c.24.151.518.232.803.233a1.58 1.58 0 0 0 .954-.33c1.717-1.296 3.653-3.653 3.735-3.753l.559-.683-1.4-1.09-.56.682z"/>
    </g>
</svg>
