<svg width="22" height="22" viewBox="0 0 22 22" xmlns="http://www.w3.org/2000/svg">
    <g fill="#434343" fill-rule="nonzero">
        <path d="M11 0C4.925 0 0 4.925 0 11s4.925 11 11 11 11-4.925 11-11C21.993 4.928 17.072.007 11 0zm0 21.267C5.33 21.267.733 16.67.733 11 .733 5.33 5.33.733 11 .733 16.67.733 21.267 5.33 21.267 11c-.007 5.667-4.6 10.26-10.267 10.267z"/>
        <path d="M11 1.467A9.533 9.533 0 1 0 20.533 11 9.544 9.544 0 0 0 11 1.467zM11 19.8a8.8 8.8 0 1 1 8.8-8.8 8.81 8.81 0 0 1-8.8 8.8z"/>
        <path d="M12.833 4.767a.367.367 0 0 0-.366.366v11.734a.367.367 0 0 0 .733 0V13.2h.733a1.1 1.1 0 0 0 1.1-1.1V6.967a2.202 2.202 0 0 0-2.2-2.2zM14.3 12.1a.367.367 0 0 1-.367.367H13.2v-6.92c.647.167 1.1.751 1.1 1.42V12.1zM10.267 4.767a.367.367 0 0 0-.367.366v2.934a1.1 1.1 0 0 1-1.1 1.1V5.133a.367.367 0 0 0-.733 0v4.034a1.1 1.1 0 0 1-1.1-1.1V5.133a.367.367 0 1 0-.734 0v2.934A1.836 1.836 0 0 0 8.067 9.9v6.967a.367.367 0 0 0 .733 0V9.9a1.836 1.836 0 0 0 1.833-1.833V5.133a.367.367 0 0 0-.366-.366z"/>
    </g>
</svg>
